<svg width="25" height="25" viewBox="0 0 25 25" fill="none" xmlns="http://www.w3.org/2000/svg">
<path d="M15.625 17.1875H17.1875L13.2812 7.8125H11.7188L7.8125 17.1875H9.375L10.3437 14.8438H14.6641L15.625 17.1875ZM10.9922 13.2812L12.4141 9.82812H12.6094L14.0625 13.2812H10.9922Z" fill="#026EDE"/>
<path d="M9.375 21.875H4.6875C4.2731 21.875 3.87567 21.7104 3.58265 21.4174C3.28962 21.1243 3.125 20.7269 3.125 20.3125V4.6875C3.125 4.2731 3.28962 3.87567 3.58265 3.58265C3.87567 3.28962 4.2731 3.125 4.6875 3.125H20.3125C20.7269 3.125 21.1243 3.28962 21.4174 3.58265C21.7104 3.87567 21.875 4.2731 21.875 4.6875V13.2812H20.3125V4.6875H4.6875V20.3125H9.375V21.875ZM17.9688 21.2344L15.9453 19.2109L14.8438 20.3125L17.9688 23.4375L23.4375 17.9688L22.3359 16.8672L17.9688 21.2344Z" fill="#026EDE"/>
</svg>
