<svg width="13" height="21" viewBox="0 0 13 21" fill="none" xmlns="http://www.w3.org/2000/svg">
<path d="M8.45225 9.71875H4.546C3.94742 9.71875 3.37336 9.48097 2.9501 9.05771C2.52685 8.63445 2.28906 8.06039 2.28906 7.46182C2.28906 6.86324 2.52685 6.28918 2.9501 5.86592C3.37336 5.44267 3.94742 5.20488 4.546 5.20488H10.796V3.64238H7.47568V0.734375H5.91318V3.64238H4.546C3.53302 3.64238 2.56153 4.04479 1.84525 4.76107C1.12897 5.47735 0.726562 6.44884 0.726562 7.46182C0.726562 8.47479 1.12897 9.44628 1.84525 10.1626C2.56153 10.8788 3.53302 11.2812 4.546 11.2812H8.45225C9.05062 11.2819 9.62429 11.5199 10.0474 11.943C10.4705 12.3661 10.7085 12.9398 10.7092 13.5382V13.7118C10.7085 14.3102 10.4705 14.8839 10.0474 15.307C9.62429 15.7301 9.05062 15.9681 8.45225 15.9688H1.84058V17.5312H5.91318V20.2656H7.47568V17.5312H8.45225C9.46487 17.5301 10.4357 17.1273 11.1517 16.4113C11.8678 15.6953 12.2705 14.7244 12.2717 13.7118V13.5382C12.2705 12.5256 11.8678 11.5547 11.1517 10.8387C10.4357 10.1227 9.46487 9.71989 8.45225 9.71875Z" fill="#026EDE"/>
</svg>
