<svg width="25" height="25" viewBox="0 0 25 25" fill="none" xmlns="http://www.w3.org/2000/svg">
<g clip-path="url(#clip0_1501_264)">
<path d="M9.375 12.5C10.6182 12.5 11.8105 12.0061 12.6896 11.1271C13.5686 10.248 14.0625 9.0557 14.0625 7.8125C14.0625 6.5693 13.5686 5.37701 12.6896 4.49794C11.8105 3.61886 10.6182 3.125 9.375 3.125C8.1318 3.125 6.93951 3.61886 6.06044 4.49794C5.18136 5.37701 4.6875 6.5693 4.6875 7.8125C4.6875 9.0557 5.18136 10.248 6.06044 11.1271C6.93951 12.0061 8.1318 12.5 9.375 12.5ZM12.5 7.8125C12.5 8.6413 12.1708 9.43616 11.5847 10.0222C10.9987 10.6083 10.2038 10.9375 9.375 10.9375C8.5462 10.9375 7.75134 10.6083 7.16529 10.0222C6.57924 9.43616 6.25 8.6413 6.25 7.8125C6.25 6.9837 6.57924 6.18884 7.16529 5.60279C7.75134 5.01674 8.5462 4.6875 9.375 4.6875C10.2038 4.6875 10.9987 5.01674 11.5847 5.60279C12.1708 6.18884 12.5 6.9837 12.5 7.8125ZM18.75 20.3125C18.75 21.875 17.1875 21.875 17.1875 21.875H1.5625C1.5625 21.875 0 21.875 0 20.3125C0 18.75 1.5625 14.0625 9.375 14.0625C17.1875 14.0625 18.75 18.75 18.75 20.3125ZM17.1875 20.3062C17.1859 19.9219 16.9469 18.7656 15.8875 17.7062C14.8688 16.6875 12.9516 15.625 9.375 15.625C5.79688 15.625 3.88125 16.6875 2.8625 17.7062C1.80313 18.7656 1.56562 19.9219 1.5625 20.3062H17.1875Z" fill="#026EDE"/>
<path fill-rule="evenodd" clip-rule="evenodd" d="M24.7729 8.04056C24.8456 8.11313 24.9033 8.19934 24.9427 8.29425C24.9821 8.38917 25.0024 8.49092 25.0024 8.59368C25.0024 8.69644 24.9821 8.79819 24.9427 8.89311C24.9033 8.98802 24.8456 9.07424 24.7729 9.14681L20.0854 13.8343C20.0128 13.9071 19.9266 13.9648 19.8317 14.0042C19.7367 14.0436 19.635 14.0638 19.5322 14.0638C19.4295 14.0638 19.3277 14.0436 19.2328 14.0042C19.1379 13.9648 19.0517 13.9071 18.9791 13.8343L16.6354 11.4906C16.4887 11.3439 16.4062 11.1449 16.4062 10.9374C16.4063 10.73 16.4887 10.531 16.6354 10.3843C16.7821 10.2376 16.981 10.1552 17.1885 10.1552C17.3959 10.1552 17.5949 10.2376 17.7416 10.3843L19.5322 12.1765L23.6666 8.04056C23.7392 7.9678 23.8254 7.91008 23.9203 7.87069C24.0152 7.83131 24.117 7.81104 24.2197 7.81104C24.3225 7.81104 24.4242 7.83131 24.5192 7.87069C24.6141 7.91008 24.7003 7.9678 24.7729 8.04056Z" fill="#026EDE"/>
</g>
<defs>
<clipPath id="clip0_1501_264">
<rect width="25" height="25" fill="white"/>
</clipPath>
</defs>
</svg>
