<svg width="25" height="25" viewBox="0 0 25 25" fill="none" xmlns="http://www.w3.org/2000/svg">
<path d="M21.251 4.3752C21.251 4.20944 21.1852 4.05047 21.068 3.93326C20.9508 3.81605 20.7918 3.7502 20.626 3.7502C20.4603 3.7502 20.3013 3.81605 20.1841 3.93326C20.0669 4.05047 20.001 4.20944 20.001 4.3752V7.1277C18.916 5.8991 17.5454 4.95622 16.0101 4.38212C14.4748 3.80802 12.8218 3.62033 11.1969 3.83558C9.57194 4.05083 8.02487 4.66242 6.69198 5.61646C5.35909 6.5705 4.28129 7.83772 3.55354 9.30645C3.47978 9.45497 3.46804 9.62671 3.5209 9.78389C3.57376 9.94107 3.6869 10.0708 3.83542 10.1446C3.98394 10.2183 4.15568 10.2301 4.31286 10.1772C4.47004 10.1244 4.59978 10.0112 4.67354 9.8627C5.34816 8.50078 6.36606 7.3382 7.62691 6.48957C8.88776 5.64093 10.348 5.13555 11.8637 5.02325C13.3794 4.91095 14.8982 5.19561 16.2703 5.84915C17.6425 6.5027 18.8206 7.50258 19.6885 8.7502H15.626C15.4603 8.7502 15.3013 8.81605 15.1841 8.93326C15.0669 9.05047 15.001 9.20944 15.001 9.3752C15.001 9.54096 15.0669 9.69993 15.1841 9.81714C15.3013 9.93435 15.4603 10.0002 15.626 10.0002H20.626C20.7918 10.0002 20.9508 9.93435 21.068 9.81714C21.1852 9.69993 21.251 9.54096 21.251 9.3752V4.3752ZM13.1348 13.9127C13.6335 13.0464 14.461 12.5002 15.6298 12.5002C16.7985 12.5002 17.626 13.0464 18.1248 13.9127C18.5948 14.7289 18.7548 15.7964 18.7548 16.8752C18.7548 17.9539 18.5948 19.0214 18.1248 19.8377C17.626 20.7039 16.7985 21.2502 15.6298 21.2502C14.461 21.2502 13.6335 20.7039 13.1348 19.8377C12.6648 19.0214 12.5048 17.9539 12.5048 16.8752C12.5048 15.7964 12.6648 14.7289 13.1348 13.9127ZM14.2185 14.5352C13.9073 15.0752 13.7548 15.8839 13.7548 16.8752C13.7548 17.8664 13.9073 18.6752 14.2173 19.2152C14.501 19.7064 14.9235 20.0002 15.6298 20.0002C16.336 20.0002 16.7585 19.7064 17.0423 19.2152C17.3523 18.6752 17.5048 17.8664 17.5048 16.8752C17.5048 15.8839 17.3523 15.0752 17.0423 14.5352C16.7585 14.0439 16.336 13.7502 15.6298 13.7502C14.9235 13.7502 14.501 14.0439 14.2173 14.5352H14.2185ZM10.001 13.1252C10.001 13.0121 9.97026 12.9012 9.91215 12.8043C9.85404 12.7073 9.77071 12.6279 9.67105 12.5745C9.57138 12.5212 9.4591 12.4958 9.34618 12.5012C9.23326 12.5066 9.12391 12.5426 9.02979 12.6052L7.15479 13.8552C7.02217 13.9492 6.9314 14.0913 6.90177 14.2511C6.87214 14.411 6.90597 14.5761 6.99608 14.7114C7.08619 14.8468 7.22549 14.9417 7.38441 14.976C7.54334 15.0103 7.70938 14.9813 7.84729 14.8952L8.75104 14.2927V20.6252C8.75104 20.791 8.81689 20.9499 8.9341 21.0671C9.05131 21.1844 9.21028 21.2502 9.37604 21.2502C9.54181 21.2502 9.70078 21.1844 9.81799 21.0671C9.9352 20.9499 10.001 20.791 10.001 20.6252V13.1252Z" fill="#026EDE"/>
</svg>
