<svg width="25" height="25" viewBox="0 0 25 25" fill="none" xmlns="http://www.w3.org/2000/svg">
<path d="M12.5004 22.0237C17.7602 22.0237 22.0242 17.7597 22.0242 12.4999C22.0242 7.24003 17.7602 2.97607 12.5004 2.97607C7.24052 2.97607 2.97656 7.24003 2.97656 12.4999C2.97656 17.7597 7.24052 22.0237 12.5004 22.0237Z" stroke="#026EDE" stroke-width="1.19048" stroke-linecap="round" stroke-linejoin="round"/>
<path d="M12.5002 17.2616C15.1301 17.2616 17.2621 15.1296 17.2621 12.4997C17.2621 9.86977 15.1301 7.73779 12.5002 7.73779C9.87026 7.73779 7.73828 9.86977 7.73828 12.4997C7.73828 15.1296 9.87026 17.2616 12.5002 17.2616Z" stroke="#026EDE" stroke-width="1.19048" stroke-linecap="round" stroke-linejoin="round"/>
<path d="M16.0722 8.92834L19.0484 5.95215M16.0722 16.0712L19.0484 19.0474M8.92932 16.0712L5.95312 19.0474M8.92932 8.92834L5.95312 5.95215" stroke="#026EDE" stroke-width="1.19048" stroke-linecap="round" stroke-linejoin="round"/>
</svg>
