<svg width="71" height="18" viewBox="0 0 71 18" fill="none" xmlns="http://www.w3.org/2000/svg">
<path d="M-0.353554 8.64645C-0.548815 8.84171 -0.548815 9.15829 -0.353554 9.35355L2.82843 12.5355C3.02369 12.7308 3.34027 12.7308 3.53553 12.5355C3.7308 12.3403 3.7308 12.0237 3.53553 11.8284L0.707108 9L3.53553 6.17157C3.7308 5.97631 3.7308 5.65973 3.53553 5.46447C3.34027 5.2692 3.02369 5.2692 2.82843 5.46447L-0.353554 8.64645ZM23 8.5L0 8.5V9.5L23 9.5V8.5Z" fill="black"/>
<path d="M37.321 14V3.09091H41.1349C41.8949 3.09091 42.5217 3.2223 43.0153 3.48509C43.5089 3.74432 43.8764 4.0941 44.1179 4.53445C44.3594 4.97124 44.4801 5.45597 44.4801 5.98864C44.4801 6.45739 44.3967 6.84446 44.2298 7.14986C44.0664 7.45526 43.8498 7.69673 43.5799 7.87429C43.3136 8.05185 43.0241 8.18324 42.7116 8.26847V8.375C43.0455 8.39631 43.381 8.51349 43.7184 8.72656C44.0558 8.93963 44.3381 9.24503 44.5653 9.64276C44.7926 10.0405 44.9062 10.527 44.9062 11.1023C44.9062 11.6491 44.782 12.141 44.5334 12.5778C44.2848 13.0146 43.8924 13.3608 43.3562 13.6165C42.82 13.8722 42.1222 14 41.2628 14H37.321ZM38.642 12.8281H41.2628C42.1257 12.8281 42.7383 12.6612 43.1005 12.3274C43.4663 11.9901 43.6491 11.5817 43.6491 11.1023C43.6491 10.733 43.555 10.392 43.3668 10.0795C43.1786 9.76349 42.9105 9.51136 42.5625 9.32315C42.2145 9.13139 41.8026 9.03551 41.3267 9.03551H38.642V12.8281ZM38.642 7.88494H41.0923C41.4901 7.88494 41.8487 7.80682 42.1683 7.65057C42.4915 7.49432 42.7472 7.27415 42.9354 6.99006C43.1271 6.70597 43.223 6.37216 43.223 5.98864C43.223 5.50923 43.0561 5.10263 42.7223 4.76882C42.3885 4.43146 41.8594 4.26278 41.1349 4.26278H38.642V7.88494ZM49.3141 14.1918C48.7956 14.1918 48.3251 14.0941 47.9025 13.8988C47.4799 13.6999 47.1444 13.4141 46.8958 13.0412C46.6472 12.6648 46.5229 12.2102 46.5229 11.6776C46.5229 11.2088 46.6152 10.8288 46.7999 10.5376C46.9846 10.2429 47.2314 10.0121 47.5403 9.84517C47.8493 9.67827 48.1902 9.55398 48.563 9.4723C48.9395 9.38707 49.3176 9.3196 49.6976 9.26989C50.1948 9.20597 50.5978 9.15803 50.9068 9.12607C51.2193 9.09055 51.4466 9.03196 51.5886 8.95028C51.7342 8.86861 51.807 8.72656 51.807 8.52415V8.48153C51.807 7.95597 51.6632 7.54759 51.3755 7.25639C51.0914 6.9652 50.66 6.8196 50.0811 6.8196C49.481 6.8196 49.0105 6.95099 48.6696 7.21378C48.3287 7.47656 48.089 7.7571 47.9505 8.0554L46.7573 7.62926C46.9703 7.1321 47.2544 6.74503 47.6096 6.46804C47.9682 6.1875 48.3588 5.99219 48.7814 5.8821C49.2076 5.76847 49.6266 5.71165 50.0385 5.71165C50.3013 5.71165 50.6032 5.74361 50.9441 5.80753C51.2885 5.8679 51.6206 5.99396 51.9402 6.18572C52.2633 6.37749 52.5314 6.6669 52.7445 7.05398C52.9576 7.44105 53.0641 7.95952 53.0641 8.60938V14H51.807V12.892H51.7431C51.6578 13.0696 51.5158 13.2596 51.3169 13.462C51.1181 13.6644 50.8535 13.8366 50.5233 13.9787C50.193 14.1207 49.79 14.1918 49.3141 14.1918ZM49.5059 13.0625C50.003 13.0625 50.4221 12.9648 50.763 12.7695C51.1074 12.5742 51.3667 12.3221 51.5407 12.0131C51.7182 11.7042 51.807 11.3793 51.807 11.0384V9.88778C51.7537 9.9517 51.6365 10.0103 51.4554 10.0636C51.2779 10.1133 51.0719 10.1577 50.8375 10.1967C50.6067 10.2322 50.3812 10.2642 50.161 10.2926C49.9444 10.3175 49.7686 10.3388 49.6337 10.3565C49.307 10.3991 49.0016 10.4684 48.7175 10.5643C48.437 10.6566 48.2097 10.7969 48.0357 10.9851C47.8652 11.1697 47.78 11.4219 47.78 11.7415C47.78 12.1783 47.9416 12.5085 48.2647 12.7322C48.5914 12.9524 49.0051 13.0625 49.5059 13.0625ZM58.6824 14.1705C57.9154 14.1705 57.2549 13.9893 56.7009 13.6271C56.1469 13.2649 55.7208 12.766 55.4225 12.1303C55.1242 11.4947 54.9751 10.7685 54.9751 9.9517C54.9751 9.12074 55.1278 8.38743 55.4331 7.75178C55.7421 7.11257 56.1718 6.61364 56.7222 6.25497C57.2762 5.89276 57.9225 5.71165 58.6611 5.71165C59.2364 5.71165 59.7549 5.81818 60.2165 6.03125C60.6782 6.24432 61.0564 6.54261 61.3511 6.92614C61.6459 7.30966 61.8287 7.7571 61.8998 8.26847H60.6427C60.5468 7.8956 60.3337 7.56534 60.0035 7.2777C59.6768 6.98651 59.2364 6.84091 58.6824 6.84091C58.1924 6.84091 57.7627 6.96875 57.3934 7.22443C57.0276 7.47656 56.7417 7.83345 56.5358 8.2951C56.3334 8.7532 56.2322 9.29119 56.2322 9.90909C56.2322 10.5412 56.3316 11.0916 56.5305 11.5604C56.7329 12.0291 57.017 12.3931 57.3827 12.6523C57.752 12.9116 58.1853 13.0412 58.6824 13.0412C59.0091 13.0412 59.3057 12.9844 59.572 12.8707C59.8383 12.7571 60.0638 12.5938 60.2485 12.3807C60.4331 12.1676 60.5645 11.9119 60.6427 11.6136H61.8998C61.8287 12.0966 61.653 12.5316 61.3724 12.9187C61.0954 13.3022 60.7279 13.6076 60.2698 13.8349C59.8153 14.0586 59.2861 14.1705 58.6824 14.1705ZM64.9094 11.017L64.8881 9.46165H65.1437L68.7233 5.81818H70.2787L66.4648 9.67472H66.3582L64.9094 11.017ZM63.7375 14V3.09091H64.9946V14H63.7375ZM68.9363 14L65.7403 9.9517L66.6352 9.07812L70.5344 14H68.9363Z" fill="black"/>
</svg>
