<svg width="21" height="21" viewBox="0 0 21 21" fill="none" xmlns="http://www.w3.org/2000/svg">
<path d="M10.4988 7.24584C8.70678 7.24584 7.24438 8.70825 7.24438 10.5002C7.24438 12.2922 8.70678 13.7546 10.4988 13.7546C12.2908 13.7546 13.7532 12.2922 13.7532 10.5002C13.7532 8.70825 12.2908 7.24584 10.4988 7.24584ZM20.2595 10.5002C20.2595 9.15258 20.2717 7.81713 20.196 6.47192C20.1204 4.90942 19.7639 3.5227 18.6213 2.38012C17.4763 1.2351 16.092 0.881097 14.5295 0.805414C13.1819 0.72973 11.8464 0.741937 10.5012 0.741937C9.15356 0.741937 7.81811 0.72973 6.47289 0.805414C4.91039 0.881097 3.52368 1.23754 2.3811 2.38012C1.23608 3.52514 0.882074 4.90942 0.80639 6.47192C0.730707 7.81957 0.742914 9.15502 0.742914 10.5002C0.742914 11.8455 0.730707 13.1833 0.80639 14.5286C0.882074 16.0911 1.23852 17.4778 2.3811 18.6204C3.52612 19.7654 4.91039 20.1194 6.47289 20.1951C7.82055 20.2707 9.156 20.2585 10.5012 20.2585C11.8489 20.2585 13.1843 20.2707 14.5295 20.1951C16.092 20.1194 17.4788 19.7629 18.6213 18.6204C19.7664 17.4753 20.1204 16.0911 20.196 14.5286C20.2742 13.1833 20.2595 11.8479 20.2595 10.5002ZM10.4988 15.5076C7.72778 15.5076 5.49145 13.2712 5.49145 10.5002C5.49145 7.72924 7.72778 5.49291 10.4988 5.49291C13.2698 5.49291 15.5061 7.72924 15.5061 10.5002C15.5061 13.2712 13.2698 15.5076 10.4988 15.5076ZM15.7112 6.45727C15.0642 6.45727 14.5417 5.93481 14.5417 5.28784C14.5417 4.64086 15.0642 4.1184 15.7112 4.1184C16.3581 4.1184 16.8806 4.64086 16.8806 5.28784C16.8808 5.44146 16.8507 5.59362 16.792 5.73559C16.7333 5.87756 16.6472 6.00655 16.5385 6.11518C16.4299 6.22381 16.3009 6.30994 16.1589 6.36864C16.017 6.42735 15.8648 6.45746 15.7112 6.45727Z" fill="#026EDE"/>
</svg>
