<svg width="21" height="21" viewBox="0 0 21 21" fill="none" xmlns="http://www.w3.org/2000/svg">
<path d="M19.4844 0.734375H1.51562C1.0835 0.734375 0.734375 1.0835 0.734375 1.51562V19.4844C0.734375 19.9165 1.0835 20.2656 1.51562 20.2656H19.4844C19.9165 20.2656 20.2656 19.9165 20.2656 19.4844V1.51562C20.2656 1.0835 19.9165 0.734375 19.4844 0.734375ZM6.52783 17.3774H3.62988V8.05615H6.52783V17.3774ZM5.08008 6.78174C4.74787 6.78174 4.42312 6.68323 4.14689 6.49866C3.87067 6.31409 3.65538 6.05176 3.52825 5.74484C3.40112 5.43792 3.36785 5.10019 3.43267 4.77436C3.49748 4.44853 3.65745 4.14924 3.89236 3.91433C4.12727 3.67942 4.42656 3.51945 4.75239 3.45464C5.07822 3.38983 5.41594 3.42309 5.72287 3.55022C6.02979 3.67735 6.29212 3.89264 6.47669 4.16887C6.66125 4.44509 6.75977 4.76984 6.75977 5.10205C6.75732 6.02979 6.00537 6.78174 5.08008 6.78174ZM17.3774 17.3774H14.4819V12.8438C14.4819 11.7622 14.4624 10.373 12.9756 10.373C11.4692 10.373 11.2373 11.5498 11.2373 12.7656V17.3774H8.34424V8.05615H11.1226V9.33057H11.1616C11.5474 8.59814 12.4922 7.82422 13.9033 7.82422C16.8379 7.82422 17.3774 9.75537 17.3774 12.2651V17.3774Z" fill="#026EDE"/>
</svg>
