<svg width="67" height="70" viewBox="0 0 67 70" fill="none" xmlns="http://www.w3.org/2000/svg">
<g filter="url(#filter0_d_1426_1183)">
<path d="M18.1151 54.9995C17.737 55.0062 17.3589 54.9417 17.0031 54.8083L34.9146 36.8901L40.8436 42.8258L20.2611 54.3902C19.6092 54.7725 18.8706 54.9822 18.1151 54.9995ZM15.5264 53.5206C15.1623 52.8612 14.9811 52.1164 15.0016 51.3634V18.6606C14.9986 18.1642 15.0736 17.6704 15.224 17.1972L33.5335 35.5113L15.5197 53.5251L15.5264 53.5206ZM42.6116 41.8272L36.2934 35.5135L43.261 28.5482L49.4502 32.0242C50.6377 32.5579 51.4339 33.7032 51.514 35.002C51.4745 35.64 51.2611 36.2551 50.8969 36.7804C50.5327 37.3057 50.0316 37.7213 49.4479 37.982L42.6116 41.8272ZM34.9146 34.1258L16.367 15.5804C16.8763 15.2024 17.4924 15.0022 18.1262 15C18.8734 15.0267 19.6029 15.238 20.25 15.616L41.4907 27.5541L34.9168 34.1258H34.9146Z" fill="white"/>
</g>
<defs>
<filter id="filter0_d_1426_1183" x="0" y="0" width="66.5156" height="70" filterUnits="userSpaceOnUse" color-interpolation-filters="sRGB">
<feFlood flood-opacity="0" result="BackgroundImageFix"/>
<feColorMatrix in="SourceAlpha" type="matrix" values="0 0 0 0 0 0 0 0 0 0 0 0 0 0 0 0 0 0 127 0" result="hardAlpha"/>
<feOffset/>
<feGaussianBlur stdDeviation="7.5"/>
<feComposite in2="hardAlpha" operator="out"/>
<feColorMatrix type="matrix" values="0 0 0 0 0 0 0 0 0 0 0 0 0 0 0 0 0 0 0.2 0"/>
<feBlend mode="normal" in2="BackgroundImageFix" result="effect1_dropShadow_1426_1183"/>
<feBlend mode="normal" in="SourceGraphic" in2="effect1_dropShadow_1426_1183" result="shape"/>
</filter>
</defs>
</svg>
