<svg width="70" height="70" viewBox="0 0 70 70" fill="none" xmlns="http://www.w3.org/2000/svg">
<g filter="url(#filter0_d_1426_1181)">
<path d="M35 15C23.9518 15 15 23.9518 15 35C15 46.0482 23.9518 55 35 55C46.0482 55 55 46.0482 55 35C55 23.9518 46.0482 15 35 15ZM27.4107 43.7402C27.288 43.9495 27.1123 44.1228 26.9013 44.2427C26.6904 44.3626 26.4516 44.4249 26.2089 44.4232C25.9616 44.4254 25.7186 44.3586 25.5071 44.2304C25.3497 44.1391 25.2118 44.0177 25.1014 43.873C24.991 43.7283 24.9103 43.5633 24.8638 43.3873C24.8173 43.2114 24.8061 43.028 24.8307 42.8477C24.8553 42.6674 24.9153 42.4937 25.0071 42.3366L26.3723 40.067C26.4413 39.9498 26.5397 39.8528 26.6578 39.7854C26.7759 39.7181 26.9096 39.6828 27.0455 39.683H27.2473C28.2375 39.683 28.9304 40.2786 29.1321 40.8554L27.4107 43.7402ZM38.9688 39.2759L30.0286 39.2857H24.0866C23.8997 39.2865 23.7145 39.2493 23.5424 39.1764C23.3702 39.1035 23.2147 38.9963 23.0852 38.8615C22.9557 38.7267 22.8549 38.5669 22.789 38.392C22.7231 38.217 22.6934 38.0305 22.7018 37.8438C22.7304 37.0938 23.3848 36.5259 24.1304 36.5259H28.4375L33.5438 27.8339L31.8902 25.017C31.5179 24.375 31.683 23.5286 32.3214 23.125C32.4788 23.0232 32.6552 22.9543 32.8399 22.9224C33.0246 22.8905 33.2138 22.8963 33.3962 22.9394C33.5786 22.9826 33.7504 23.0621 33.9013 23.1733C34.0521 23.2845 34.179 23.4251 34.2741 23.5866L35.158 25.0964H35.1679L36.0527 23.5866C36.1479 23.426 36.2746 23.2861 36.425 23.1755C36.5755 23.0648 36.7466 22.9856 36.9284 22.9425C37.1101 22.8994 37.2986 22.8934 37.4827 22.9247C37.6669 22.9561 37.8428 23.0242 38 23.125C38.6348 23.5286 38.7982 24.375 38.4232 25.0196L36.7696 27.8366L35.1625 30.5768L31.6723 36.5286V36.5384H36.8161C37.4607 36.5384 38.2687 36.8848 38.5955 37.442L38.6241 37.5C38.9125 37.9902 39.0759 38.3268 39.0759 38.817C39.0712 38.9761 39.0357 39.1329 38.9714 39.2786L38.9688 39.2759ZM45.9107 39.2857H43.4902V39.2955L45.2598 42.3054C45.4501 42.6223 45.5084 43.0014 45.4221 43.3609C45.3357 43.7204 45.1117 44.0317 44.7982 44.2277C44.5809 44.3602 44.3313 44.4303 44.0768 44.4304C43.8348 44.4303 43.5969 44.3675 43.3864 44.2483C43.1758 44.1291 42.9996 43.9574 42.875 43.75L40.2598 39.2982L38.6348 36.5304L36.5384 32.9464C36.2347 32.4347 36.0697 31.8527 36.0595 31.2577C36.0493 30.6627 36.1944 30.0754 36.4804 29.5536C36.8946 28.8223 37.2116 28.6304 37.2116 28.6304L41.875 36.5179H45.8848C46.6348 36.5179 47.2786 37.0946 47.3134 37.8348C47.3206 38.023 47.2897 38.2107 47.2226 38.3866C47.1554 38.5626 47.0534 38.7231 46.9226 38.8587C46.7919 38.9942 46.6351 39.1019 46.4616 39.1753C46.2882 39.2486 46.1017 39.2862 45.9134 39.2857H45.9107Z" fill="white"/>
</g>
<defs>
<filter id="filter0_d_1426_1181" x="0" y="0" width="70" height="70" filterUnits="userSpaceOnUse" color-interpolation-filters="sRGB">
<feFlood flood-opacity="0" result="BackgroundImageFix"/>
<feColorMatrix in="SourceAlpha" type="matrix" values="0 0 0 0 0 0 0 0 0 0 0 0 0 0 0 0 0 0 127 0" result="hardAlpha"/>
<feOffset/>
<feGaussianBlur stdDeviation="7.5"/>
<feComposite in2="hardAlpha" operator="out"/>
<feColorMatrix type="matrix" values="0 0 0 0 0 0 0 0 0 0 0 0 0 0 0 0 0 0 0.2 0"/>
<feBlend mode="normal" in2="BackgroundImageFix" result="effect1_dropShadow_1426_1181"/>
<feBlend mode="normal" in="SourceGraphic" in2="effect1_dropShadow_1426_1181" result="shape"/>
</filter>
</defs>
</svg>
